<?xml version="1.0" standalone="no"?>
<!DOCTYPE svg PUBLIC "-//W3C//DTD SVG 20010904//EN"
 "http://www.w3.org/TR/2001/REC-SVG-20010904/DTD/svg10.dtd">
<svg version="1.0" xmlns="http://www.w3.org/2000/svg"
 width="150.000000pt" height="150.000000pt" viewBox="0 0 150.000000 150.000000"
 preserveAspectRatio="xMidYMid meet">
<metadata>
Created by potrace 1.11, written by Peter Selinger 2001-2013
</metadata>
<g transform="translate(0.000000,150.000000) scale(0.100000,-0.100000)"
fill="#000000" stroke="none">
<path d="M579 1457 c-137 -47 -230 -147 -360 -387 -40 -74 -102 -180 -138
-235 -36 -55 -70 -106 -74 -112 -4 -7 -6 -13 -3 -13 12 0 130 187 217 342 51
90 111 190 135 223 81 114 189 179 324 195 64 7 64 7 15 8 -28 1 -79 -8 -116
-21z"/>
<path d="M783 1473 c15 -2 37 -2 50 0 12 2 0 4 -28 4 -27 0 -38 -2 -22 -4z"/>
<path d="M907 1455 c86 -24 155 -64 213 -125 71 -74 116 -151 192 -330 58
-137 177 -374 185 -367 1 2 -22 50 -53 108 -31 57 -81 163 -111 234 -87 205
-129 279 -203 356 -71 73 -163 126 -236 135 -33 4 -31 2 13 -11z"/>
<path d="M625 1405 c-27 -7 -51 -18 -53 -23 -2 -6 -9 -9 -17 -6 -7 3 -16 0
-20 -5 -3 -6 -10 -9 -15 -6 -4 3 -29 -20 -55 -50 -25 -30 -52 -55 -59 -55 -8
0 -24 -16 -37 -35 -26 -38 -41 -46 -34 -17 3 9 -1 4 -9 -13 -8 -16 -15 -35
-16 -42 0 -6 -70 -118 -155 -249 l-155 -237 0 -141 0 -140 46 44 c73 73 133
168 169 275 18 53 35 98 37 100 8 8 -4 -256 -18 -420 -9 -99 -14 -202 -12
-230 3 -37 5 -28 7 35 2 58 5 79 11 65 17 -39 11 -128 -10 -160 -11 -16 -20
-45 -20 -62 l0 -33 151 3 151 2 40 120 c46 137 63 165 56 90 -3 -27 -2 -61 2
-75 4 -14 9 32 11 107 3 73 8 136 12 140 11 11 27 -17 27 -48 0 -16 14 -40 38
-65 49 -51 82 -76 82 -63 0 5 6 7 13 3 7 -4 9 -3 4 2 -5 5 -13 10 -18 10 -5 1
-12 2 -16 3 -4 0 13 14 38 29 44 28 99 85 99 103 0 17 -9 9 -25 -21 -9 -17
-41 -47 -71 -67 l-56 -37 -39 41 c-24 26 -39 52 -39 68 0 30 -1 30 55 3 l46
-23 70 37 c38 20 69 31 68 25 -4 -24 14 -157 21 -157 6 0 33 -84 60 -187 l11
-42 134 0 c142 0 150 2 121 44 -10 15 -15 99 -20 355 -4 184 -9 353 -11 375
-3 22 25 -50 62 -160 79 -232 110 -286 186 -314 l27 -11 0 80 c0 76 -2 85 -45
163 -24 45 -71 152 -104 237 -32 85 -75 188 -94 228 -20 40 -43 97 -51 126
-19 65 -59 155 -81 181 -20 25 -18 19 28 -77 47 -98 48 -121 1 -43 -34 58
-141 177 -176 196 -14 7 -13 2 5 -41 37 -89 -6 -72 -70 28 l-34 52 -102 -1
c-56 0 -124 -6 -152 -14z m282 -51 c14 -30 22 -58 19 -61 -3 -4 -6 -1 -6 5 0
7 -5 12 -10 12 -6 0 -8 -17 -5 -42 5 -43 5 -43 -8 7 -7 28 -19 60 -25 72 -15
27 -16 63 -1 63 5 0 22 -25 36 -56z m-61 8 c6 -10 15 -32 19 -50 9 -41 -9 -43
-30 -2 -26 49 -16 96 11 52z m-259 -24 c-3 -8 -6 -5 -6 6 -1 11 2 17 5 13 3
-3 4 -12 1 -19z m-67 8 c0 -2 -8 -10 -17 -17 -16 -13 -17 -12 -4 4 13 16 21
21 21 13z m107 -48 c-2 -13 -4 -5 -4 17 -1 22 1 32 4 23 2 -10 2 -28 0 -40z
m-80 10 c-3 -8 -6 -5 -6 6 -1 11 2 17 5 13 3 -3 4 -12 1 -19z m190 -75 c-2
-21 -4 -6 -4 32 0 39 2 55 4 38 2 -18 2 -50 0 -70z m-140 55 c-3 -7 -5 -2 -5
12 0 14 2 19 5 13 2 -7 2 -19 0 -25z m-127 -8 c-12 -16 -24 -30 -26 -30 -3 0
4 14 16 30 12 17 24 30 26 30 3 0 -4 -13 -16 -30z m-49 -77 c-12 -20 -14 -14
-5 12 4 9 9 14 11 11 3 -2 0 -13 -6 -23z m496 -15 c-3 -8 -6 -5 -6 6 -1 11 2
17 5 13 3 -3 4 -12 1 -19z m-362 -215 c-2 -7 -9 -13 -15 -13 -11 0 -13 33 -3
70 7 24 7 23 15 -10 4 -19 5 -41 3 -47z m15 -23 c0 -5 -9 -14 -19 -20 -25 -13
-38 5 -14 19 23 13 33 14 33 1z m203 -41 c12 -41 16 -45 61 -56 26 -6 68 -14
94 -17 26 -2 48 -5 50 -5 1 -1 2 -7 2 -13 0 -7 14 -21 31 -30 27 -16 30 -22
28 -63 -2 -25 -4 -45 -5 -45 -1 0 -10 7 -18 16 -9 9 -42 19 -74 24 -53 7 -59
6 -81 -18 l-24 -26 -17 21 c-15 19 -29 71 -67 243 -9 40 6 17 20 -31z m154
-36 c-2 -16 -4 -3 -4 27 0 30 2 43 4 28 2 -16 2 -40 0 -55z m45 12 c3 -29 1
-35 -15 -35 -13 0 -17 5 -13 16 3 9 6 27 6 40 0 37 17 20 22 -21z m-382 5 c15
-35 16 -33 -32 -47 l-38 -11 0 38 c0 21 6 41 13 43 29 12 45 5 57 -23z m10
-70 c-12 -8 -11 -10 5 -10 11 0 25 -8 32 -19 11 -17 8 -19 -30 -23 -45 -5
-144 -45 -135 -54 4 -3 24 4 46 15 54 28 113 36 133 19 9 -7 43 -49 76 -93 60
-79 184 -205 204 -205 5 0 -1 15 -14 33 -43 56 -121 224 -91 194 3 -3 17 -2
31 4 26 10 56 -9 51 -32 -2 -7 6 -14 17 -16 17 -3 18 -2 5 7 -12 9 -11 10 7 5
16 -4 23 -1 28 15 8 24 31 21 29 -4 -2 -18 11 -22 21 -6 13 20 25 9 25 -23 0
-42 -40 -122 -85 -169 -35 -37 -162 -118 -185 -118 -6 0 -29 9 -51 20 -22 12
-44 18 -50 15 -5 -4 -8 -2 -7 3 2 6 -21 28 -51 49 -39 27 -63 55 -85 95 -18
34 -36 56 -43 53 -16 -5 -29 19 -42 75 -8 37 -7 47 11 71 14 19 19 35 14 53
-6 24 8 38 16 15 5 -15 35 0 41 21 3 13 16 20 43 22 46 4 54 0 34 -12z m343
-127 c-7 -2 -19 -2 -25 0 -7 3 -2 5 12 5 14 0 19 -2 13 -5z m197 -8 c0 -8 -4
-15 -10 -15 -5 0 -7 7 -4 15 4 8 8 15 10 15 2 0 4 -7 4 -15z m-770 -489 c-9
-8 -10 6 -7 54 7 85 10 88 14 16 3 -35 0 -63 -7 -70z m860 -18 c0 -62 -4 -98
-9 -92 -8 8 -3 194 5 194 2 0 4 -46 4 -102z m-120 -148 c0 -5 -2 -10 -4 -10
-3 0 -8 5 -11 10 -3 6 -1 10 4 10 6 0 11 -4 11 -10z"/>
<path d="M841 758 c-14 -22 -13 -22 11 -6 14 9 38 18 54 21 24 3 22 4 -11 6
-32 1 -43 -4 -54 -21z"/>
<path d="M564 705 c-87 -16 -104 -32 -66 -61 24 -19 31 -17 25 5 -11 44 33 32
51 -14 6 -16 9 -17 17 -5 8 13 10 13 18 1 7 -11 11 -9 20 8 7 12 9 27 5 33 -5
8 -2 9 9 5 53 -22 53 -21 40 -5 -7 8 -11 17 -8 19 2 3 -8 9 -23 15 -18 7 -47
6 -88 -1z m41 -25 c-11 -5 -27 -9 -35 -9 -13 -1 -13 0 0 9 8 5 24 9 35 9 l20
0 -20 -9z"/>
<path d="M451 674 c-1 -16 6 -39 15 -50 15 -19 16 -19 9 1 -4 11 -11 34 -15
50 l-8 30 -1 -31z"/>
<path d="M869 622 c17 -22 38 -45 48 -53 10 -8 -2 10 -26 39 -51 60 -68 71
-22 14z"/>
<path d="M598 603 c7 -3 16 -2 19 1 4 3 -2 6 -13 5 -11 0 -14 -3 -6 -6z"/>
<path d="M1482 600 c0 -8 4 -26 8 -40 6 -20 8 -21 8 -5 0 11 -3 29 -8 40 -5
12 -8 14 -8 5z"/>
<path d="M690 148 c-23 -35 -32 -52 -20 -39 31 36 44 15 25 -38 -22 -62 -20
-71 15 -71 27 0 30 3 30 30 0 17 5 30 11 30 7 0 8 -11 4 -30 -6 -28 -5 -30 24
-30 30 0 31 1 31 50 0 28 5 50 10 50 6 0 10 -5 10 -12 0 -6 2 -9 5 -7 2 3 -1
21 -7 41 -11 36 -12 36 -34 21 -22 -14 -26 -14 -49 1 -27 18 -32 35 -13 54 7
7 9 12 5 12 -3 0 -25 -28 -47 -62z"/>
<path d="M901 164 c0 -11 3 -14 6 -6 3 7 2 16 -1 19 -3 4 -6 -2 -5 -13z"/>
<path d="M611 94 c0 -11 3 -14 6 -6 3 7 2 16 -1 19 -3 4 -6 -2 -5 -13z"/>
</g>
</svg>
